<?xml version="1.0" standalone="no"?><!DOCTYPE svg PUBLIC "-//W3C//DTD SVG 1.1//EN" "http://www.w3.org/Graphics/SVG/1.1/DTD/svg11.dtd"><svg t="1637028109891" class="icon" viewBox="0 0 1024 1024" version="1.1" xmlns="http://www.w3.org/2000/svg" p-id="4049" xmlns:xlink="http://www.w3.org/1999/xlink" width="200" height="200"><defs><style type="text/css"></style></defs><path d="M535.7 539.7c1.6-30.3-7.9-56.7-28.4-78.2-31.5-33.1-87.3-52-153.5-52-54.5 0-108.7 13.2-148.5 36.2-6.3 3.8-12.6 7.6-19.9 13.2l-59.6 58c-45.4 58.3-67.8 128-58.3 181.9 6 34 24.3 61.5 53.3 79.7 23.6 14.8 45.4 22.1 67.1 22.1 50.7 0 88.6-40.7 128.6-83.5 28.1-30.3 57.4-61.5 93.3-82.6 37.5-21.7 63.4-34.4 80.7-42.6 34.5-16.9 43.6-21.3 45.2-52.2z m-56.1-5.3c-3.8 1.9-8.5 4.4-13.9 6.9-18 8.8-45.1 22.1-84.2 44.4-43.5 25.2-76.9 61.1-106.5 93-32.8 35.3-61.1 65.6-87.3 65.6-10.7 0-22.7-4.4-36.9-13.6-10.4-6.6-17.7-14.5-22.4-24.3-4.7-10.1-6.9-22.1-6.6-35.6 0.6-29.6 12.6-64.3 33.7-97.7 21.4-33.7 49.2-61.8 78.2-78.5 31.5-18.3 75.6-28.7 120.4-28.7 50.1 0 92.4 12.9 112.8 34.4 8.6 9.8 12.7 20.5 12.7 34.1z m327.8 151.9c-40.3-9.1-82-18.9-118.2-39.7-37.5-21.7-61.5-37.8-77.2-48.5-20.5-13.9-30.9-20.8-43.2-20.8-7.9 0-15.1 2.8-24.6 7.6-37.2 18.9-57.7 52.6-58.6 97.4-2.2 82 63 189.7 142.5 235.8 5.7 3.2 11.7 6.3 19.2 9.8l75.6 22.4c16.7 2.5 34 4.1 50.7 4.1 82.9 0 180.9-33.7 184.7-129.2 4.5-103.3-71.2-120.6-150.9-138.9z m94.8 136.5c-0.9 22.7-11.7 39.4-33.4 53-23.6 14.5-57.4 22.4-95.2 22.4-43.2 0-86-10.4-117.6-28.7-29.6-17-59.3-47.6-81.3-83.8-21.7-35.7-33.7-72.6-33-101.9 0.6-22.7 8.8-38.1 25.8-47.6 3.8 2.5 8.5 5.7 12.9 8.8 16.4 11 41.3 28.1 80.4 50.4 43.2 24.9 91.1 35.9 133.6 45.7 34.7 7.9 67.5 15.4 87 28.7 11.7 7.9 22.1 19.6 20.8 53zM570 406.1c0 43.2-1.9 72.2-3.5 91.1-2.8 38.1-3.5 48.5 22.4 65.2 18 11.7 37.2 17.7 57.1 17.7 97.7 0 189.4-144.7 189.4-256.9 0-13.9-1.3-28.4-4.4-44.4l-27.4-82c-30.6-61.5-88.6-127-159.8-127-18.6 0-36.9 4.7-54.2 13.9-91.4 47.9-68.7 122-44.8 200.5 12.6 39.6 25.2 80.3 25.2 121.9z m29.3-138.4c-10.4-34-20.2-66.2-18.6-89.5 0.9-13.9 6-29 35.6-44.4 22.7-12 45.7-9.1 70.9 7.6 16.1 10.7 31.8 26.8 45.7 46.3 14.2 19.9 25.8 43.2 34 66.8 8.2 23.6 12.3 47.6 12.3 69 0 42.6-18 95.2-47 137.1-27.1 39.1-59.9 63.4-86 63.4-8.2 0-16.4-2.2-24.3-7.2 0.3-4.4 0.6-10.1 0.9-15.8 1.3-19.9 3.5-49.8 3.5-94.6 0.1-50.1-14.4-97.4-27-138.7z" p-id="4050" fill="#ffffff"></path></svg>